Patient4_TMGait_0pt3_02_left_29_EMG.mot
version=1
nRows=16
nColumns=33
inDegrees=no
endheader
time	1LAddLong	2LGlutMax	3LGlutMed	4LIliopsoas	5LSemiMemb	6LBicFemLong	7LRecFem	8LVastMed	9LVastLat	10LGasMed	11LTibAnt	12lTibPost	13LPeroneusLong	14LSol	15LExtDigLong	16LFlexDigLong	17RAddLong	18RGlutMax	19RGlutMed	20RIliopsoas	21RSemiMemb	22RBicFemLong	23RRecFem	24RVastMed	25RVastLat	26RGasMed	27RTibAnt	28RTibPost	29RPeroneusLong	30RSol	31RExtDigLong	32RFlexDigLong
56.73	0.020447	0.099182	-0.059662	-0.002441	-0.010223	-0.014191	-0.03952	0.020447	-0.032501	-0.019836	0.014038	0.002899	0.047607	-0.078125	-0.11566	-0.004883	0.042572	0.10986	-0.070648	-0.011292	-0.023651	0.21088	0.38925	-0.29892	-0.075226	-0.001068	-0.094299	-0.011749	-0.091858	-0.080566	-0.003204	-0.007019
56.731	0.011444	0.10086	-0.043488	-0.016937	-0.005341	-0.047455	-0.046539	0.007935	-0.016022	-0.011444	-0.035248	0.002747	0.045319	-0.030212	-0.066528	0.002594	-0.004425	0.16266	0.12665	-0.11902	-0.028992	0.26306	0.079803	-0.2092	0.45822	-0.006561	-0.013885	-0.015869	0.12405	0.083008	-0.006409	-0.007172
56.732	0.009308	0.067291	-0.010681	-0.016022	-0.006256	-0.036316	-0.058899	0.00946	-0.017548	0.007935	-0.11169	0.000458	0.038147	-0.021515	0.009918	0.006714	-0.040588	0.1915	0.13107	-0.11108	-0.020294	0.30472	-0.15106	-0.10132	0.96985	-0.00824	0.019531	-0.014648	-0.1358	0.063629	-0.001526	-0.006714
56.733	0.01297	0.061493	0.01358	0.00946	-0.007629	-0.017395	-0.037079	0.014038	-0.01358	-0.012512	-0.042572	-0.000916	0.035706	-0.042114	0.1535	0.007477	-0.015869	0.29694	0.70999	-0.064392	-0.021057	0.4538	-0.1294	-0.092773	0.95962	-0.007782	0.047913	-0.000153	-0.42084	0.013275	-0.000305	-0.012817
56.734	0.014191	0.072937	0.041504	-0.021667	-0.001678	-0.024109	-0.045624	0.009308	-0.013275	-0.000305	-0.028076	0.006561	0.010529	-0.034637	0.17151	0.00412	0.014954	0.33676	0.71854	-0.006561	0.005493	0.53146	-0.177	-0.16159	0.74234	-0.006561	0.028229	-0.003052	-0.45334	-0.069427	-0.007019	-0.009613
56.735	0.008087	0.075226	-0.024261	-0.029449	-0.001984	-0.04425	-0.034637	0.013275	-0.029144	-0.020752	0.007019	0.001831	0.040894	0.006409	0.23193	0.009918	-0.001526	0.3154	1.093	-0.001221	-0.082703	0.46845	-0.0177	-0.096741	0.40024	-0.013275	-0.027771	-0.006561	0.53421	-0.17777	-0.00412	-0.005188
56.736	0.008698	0.10086	-0.043945	-0.016327	0.001068	-0.024414	-0.03952	0.020905	-0.022888	-0.019989	0.080872	-0.004578	0.031891	0.058136	0.15625	0.010223	-0.024109	0.20462	1.0593	0.032654	-0.030212	0.45059	0.38132	-0.10986	0.017395	-0.00824	-0.020142	-0.008698	0.11185	-0.16571	-0.010223	-0.001831
56.737	0.006409	0.10742	-0.048676	-0.036469	-0.000458	-0.038147	-0.040131	0.013123	-0.027008	-0.024414	0.018768	0.003662	0.023651	0.016174	0.059509	-0.005341	-0.07843	0.14648	0.4866	0.041199	-0.016479	0.50751	0.59982	0.22766	-0.23956	-0.003052	-0.00412	-0.002899	-0.11368	0.10788	-0.007935	-0.001984
56.738	0.017548	0.09903	-0.046692	-0.024872	0.003662	-0.04715	-0.025635	0.010529	-0.035095	-0.037231	-0.073395	0.000153	0.03891	-0.033264	-0.058594	0.002441	-0.095673	0.1886	-0.33585	0.11566	0.027008	0.54077	0.95871	0.22064	-0.62668	-0.016022	0.00351	-0.00412	-0.19516	0.1268	-0.000305	-0.015259
56.739	0.007477	0.074768	-0.031586	-0.028534	-0.001068	-0.057526	-0.020752	0.000916	-0.034332	0.003052	-0.06012	0.000763	0.014038	-0.091095	-0.078583	0.001373	-0.090637	0.14954	-0.6311	0.12589	-0.036163	0.43167	1.0938	-0.088043	-0.65689	0.029602	0.00351	-0.059967	-0.1268	-0.078278	-0.00061	-0.006866
56.74	0.015717	0.06012	-0.006104	-0.013275	0.006104	-0.060577	-0.042877	0.011749	-0.028381	-0.00061	-0.036926	0.006866	0.003052	-0.068359	0.42419	-0.002136	-0.098114	0.12848	-0.58701	0.018616	0.22949	0.30212	1.0689	-0.061798	-0.5864	0.037994	0.010986	-0.31479	-0.14069	-0.27008	-0.003662	-0.009613
56.741	0.015869	0.061493	-0.023041	-0.006714	-0.001526	-0.051117	-0.030823	0.003662	-0.02655	-0.03067	-0.083923	0.008698	0.029144	0.007477	0.33463	0.005951	-0.066833	0.17303	0.12634	0.000153	0.19669	0.24155	0.69336	-0.032959	-0.3331	0.026245	-0.01297	0.19714	0.068207	-0.31784	-0.002899	-0.003357
56.742	0.00824	0.07019	-0.00946	0.010986	0.001373	-0.03006	-0.03067	0.006104	-0.025482	-0.008698	-0.041809	0.001373	-0.023651	0.016022	0.84808	-0.010681	-0.065765	0.11765	0.41977	-0.02594	0.10284	0.18463	-0.16525	-0.10849	-0.24002	0.008698	-0.017548	0.066833	0.1648	-0.10941	-0.001831	-0.002289
56.743	0.006714	0.07309	0.008392	-0.012512	-0.00351	-0.019531	-0.020294	-0.032196	-0.033112	-0.012512	0.044098	0.003204	-0.012817	0.027618	-0.15747	0.002747	-0.057831	0.070648	0.29221	-0.043182	0.062561	0.20279	-0.95627	0.032501	-0.11643	-0.083923	0.015869	0.005341	0.18539	0.020752	-0.000305	-0.00885
56.744	0.005646	0.085449	-0.026855	-0.007324	-0.003357	-0.027161	-0.014954	0.004425	-0.028839	-0.027008	0.23468	-0.005341	-0.030212	0.030365	-0.64819	0.004425	-0.018005	0.073547	0.22934	-0.017548	0.021973	0.16403	-0.71137	0.10956	-0.10956	-0.054932	0.0177	0.00473	0.05249	0.002747	-0.003967	-0.00824
56.745	-0.003204	0.06424	-0.032959	-0.016327	-0.003815	-0.049133	-0.014496	0.004883	-0.037537	-0.045776	0.27329	-0.002136	0.016937	-0.040894	-0.15091	-0.004272	-0.001221	0.14282	-0.36255	0.025177	0.005798	0.20966	-0.69855	0.30243	0.03891	-0.006561	-0.002289	0.057526	0.080566	-0.040283	0.002289	-0.010071
